# Blender 4.1.1
# www.blender.org
o Cube.001
v -0.203027 -0.051372 1.038994
v -0.203027 0.051450 1.038994
v -0.195995 -0.049519 -1.000000
v -0.203027 0.051450 -1.037434
v 0.203944 -0.051372 1.038994
v 0.203944 0.051450 1.038994
v 0.203944 -0.051372 -1.037434
v 0.203944 0.051450 -1.037434
v -0.195995 -0.049519 0.000000
v -0.203027 0.000039 1.038994
v -0.203027 0.051450 0.000780
v -0.195995 0.000000 -1.000000
v 0.000459 -0.051372 -1.037434
v 0.000000 0.049519 -1.000000
v 0.203944 0.000039 -1.037434
v 0.195995 -0.049519 0.000000
v 0.195995 0.049519 0.000000
v 0.195995 0.000000 1.000000
v 0.000000 -0.049519 1.000000
v 0.000000 0.049519 1.000000
v 0.000000 0.049519 0.000000
v 0.000459 -0.051372 0.000780
v 0.000000 0.000000 1.000000
v 0.195995 0.000000 0.000000
v 0.000000 0.000000 -1.000000
v -0.195995 0.000000 0.000000
v -0.203027 -0.051372 0.519887
v -0.195995 0.024759 1.000000
v -0.195995 0.049519 -0.500000
v -0.203027 -0.025667 -1.037434
v -0.101284 -0.051372 -1.037434
v 0.102201 0.051450 -1.037434
v 0.195995 -0.024759 -1.000000
v 0.203944 -0.051372 -0.518327
v 0.203944 0.051450 0.519887
v 0.195995 -0.024759 1.000000
v 0.102201 -0.051372 1.038994
v -0.101284 0.051450 1.038994
v -0.203027 -0.051372 -0.518327
v -0.195995 -0.024759 1.000000
v -0.203027 0.051450 0.519887
v -0.203027 0.025744 -1.037434
v 0.097998 -0.049519 -1.000000
v -0.097998 0.049519 -1.000000
v 0.195995 0.024759 -1.000000
v 0.195995 -0.049519 0.500000
v 0.203944 0.051450 -0.518327
v 0.203944 0.025744 1.038994
v -0.097998 -0.049519 1.000000
v 0.097998 0.049519 1.000000
v 0.000000 0.049519 0.500000
v 0.000459 0.051450 -0.518327
v 0.097998 0.049519 0.000000
v -0.101284 0.051450 0.000780
v 0.000000 -0.049519 0.500000
v 0.000000 -0.049519 -0.500000
v -0.101284 -0.051372 0.000780
v 0.097998 -0.049519 0.000000
v -0.097998 0.000000 1.000000
v 0.102201 0.000039 1.038994
v 0.000459 -0.025667 1.038994
v 0.000459 0.025744 1.038994
v 0.195995 0.000000 0.500000
v 0.203944 0.000039 -0.518327
v 0.203944 -0.025667 0.000780
v 0.203944 0.025744 0.000780
v 0.097998 0.000000 -1.000000
v -0.101284 0.000039 -1.037434
v 0.000000 -0.024759 -1.000000
v 0.000459 0.025744 -1.037434
v -0.203027 0.000039 -0.518327
v -0.203027 0.000039 0.519887
v -0.195995 -0.024759 0.000000
v -0.195995 0.024759 0.000000
v -0.195995 0.024759 0.500000
v -0.203027 -0.025667 0.519887
v -0.195995 -0.024759 -0.500000
v -0.101284 0.025744 -1.037434
v -0.097998 -0.024759 -1.000000
v 0.102201 -0.025667 -1.037434
v 0.195995 0.024759 -0.500000
v 0.195995 -0.024759 -0.500000
v 0.195995 -0.024759 0.500000
v 0.097998 0.024759 1.000000
v 0.097998 -0.024759 1.000000
v -0.101284 -0.025667 1.038994
v 0.102201 -0.051372 -0.518327
v -0.101284 -0.051372 -0.518327
v -0.101284 -0.051372 0.519887
v -0.097998 0.049519 -0.500000
v 0.097998 0.049519 -0.500000
v 0.097998 0.049519 0.500000
v -0.101284 0.051450 0.519887
v 0.102201 -0.051372 0.519887
v -0.097998 0.024759 1.000000
v 0.203944 0.025744 0.519887
v 0.097998 0.024759 -1.000000
v -0.203027 0.025744 -0.518327
vn -1.0000 -0.0000 -0.0000
vn -0.0000 -0.8142 -0.5805
vn 1.0000 -0.0000 -0.0000
vn -0.0000 -0.8252 0.5648
vn -0.0000 -1.0000 -0.0000
vn -0.0000 1.0000 -0.0000
vn -0.0000 1.0000 -0.0039
vn -0.0000 -1.0000 0.0039
vn 0.0183 -0.9998 -0.0000
vn -0.0000 -1.0000 0.0036
vn -0.2126 -0.8414 0.4968
vn 0.2068 0.8184 0.5362
vn 0.2111 0.8357 0.5070
vn 0.9553 0.2954 -0.0146
vn 0.9484 0.3166 -0.0157
vn 0.2109 -0.8349 -0.5083
vn -0.0000 -0.0000 -1.0000
vn -0.0000 0.8441 -0.5361
vn -0.9688 0.2475 0.0123
vn -0.9999 -0.0000 -0.0135
vn -0.9670 -0.2547 -0.0000
vn -0.9645 0.2638 -0.0131
vn -0.9619 0.2736 -0.0000
vn -0.9668 0.2554 -0.0000
vn -0.9999 -0.0000 0.0146
vn 0.2041 -0.8078 -0.5530
vn -0.2081 -0.8237 -0.5274
vn -0.0000 0.8150 -0.5794
vn -0.2037 0.8063 -0.5553
vn -0.1968 0.7789 -0.5955
vn -0.2014 0.7972 -0.5692
vn 0.9550 0.2962 0.0147
vn 0.9520 0.3061 -0.0000
vn 0.9584 -0.2854 -0.0000
vn 0.9606 0.2774 0.0137
vn 0.9582 0.2862 -0.0000
vn 0.9523 -0.3052 -0.0000
vn 0.9633 0.2682 -0.0133
vn 0.9487 -0.3161 -0.0000
vn 0.9999 -0.0000 0.0159
vn -0.2060 -0.8155 0.5408
vn -0.3454 -0.0000 0.9385
vn -0.2104 -0.8329 0.5119
vn -0.0000 0.8260 0.5637
vn -0.0000 -0.0000 1.0000
vn 0.2001 0.7921 0.5767
vn -0.0000 -0.8531 0.5218
vn -0.0000 0.8353 0.5498
vn 0.0190 -0.9998 -0.0037
vn 0.0177 -0.9998 0.0035
vn -0.0000 -1.0000 -0.0038
vn 0.0176 -0.9998 -0.0000
vn -0.0000 -1.0000 -0.0036
vn -0.0189 0.9998 0.0037
vn -0.0000 1.0000 -0.0040
vn -0.0176 0.9998 0.0035
vn -0.0182 0.9998 -0.0000
vn -0.0176 0.9998 -0.0034
vn 0.0191 0.9998 -0.0000
vn -0.0181 -0.9998 -0.0000
vn 0.0190 -0.9998 0.0037
vn 0.2046 0.8096 0.5502
vn 0.9555 -0.2950 -0.0000
vn -0.9999 -0.0000 -0.0146
vn -0.9999 -0.0000 0.0136
vn -0.9616 0.2739 0.0136
vn 0.0191 0.9998 0.0037
vn -0.0000 -1.0000 -0.0037
vn 0.9553 -0.2954 0.0146
vn 0.9608 -0.2767 0.0137
vn -0.9592 -0.2823 -0.0140
vn -0.9621 -0.2728 -0.0000
vn -0.9645 -0.2638 0.0131
vn 0.2066 0.8176 -0.5374
vn -0.2083 0.8245 -0.5262
vn 0.9555 -0.2946 -0.0146
vn 0.9487 -0.3156 -0.0156
vn 0.9552 0.2958 -0.0000
vn -0.2016 -0.7980 0.5679
vn 0.2110 -0.8350 0.5083
vn -0.0175 -0.9998 0.0034
vn -0.0188 -0.9998 -0.0037
vn -0.0175 -0.9998 -0.0000
vn -0.0196 -0.9998 -0.0000
vn -0.0000 -1.0000 0.0037
vn 0.0190 0.9998 -0.0037
vn -0.0196 0.9998 -0.0000
vn 0.0172 0.9998 0.0034
vn 0.0205 0.9998 -0.0040
vn -0.0175 -0.9998 -0.0034
vn -0.9647 -0.2635 -0.0000
vn -0.9670 -0.2544 -0.0126
vt 0.562500 0.187500
vt 0.625000 0.250000
vt 0.562500 0.250000
vt 0.625000 0.437500
vt 0.562500 0.500000
vt 0.562500 0.437500
vt 0.625000 0.687500
vt 0.562500 0.750000
vt 0.562500 0.687500
vt 0.625000 0.937500
vt 0.562500 1.000000
vt 0.562500 0.937500
vt 0.312500 0.687500
vt 0.375000 0.750000
vt 0.312500 0.750000
vt 0.875000 0.687500
vt 0.812500 0.750000
vt 0.812500 0.687500
vt 0.750000 0.687500
vt 0.687500 0.750000
vt 0.687500 0.687500
vt 0.687500 0.562500
vt 0.750000 0.625000
vt 0.687500 0.625000
vt 0.875000 0.562500
vt 0.812500 0.625000
vt 0.812500 0.562500
vt 0.187500 0.687500
vt 0.250000 0.750000
vt 0.187500 0.750000
vt 0.250000 0.562500
vt 0.187500 0.625000
vt 0.187500 0.562500
vt 0.312500 0.562500
vt 0.375000 0.625000
vt 0.312500 0.625000
vt 0.437500 0.937500
vt 0.500000 1.000000
vt 0.437500 1.000000
vt 0.437500 0.812500
vt 0.500000 0.875000
vt 0.437500 0.875000
vt 0.562500 0.812500
vt 0.625000 0.875000
vt 0.562500 0.875000
vt 0.500000 0.687500
vt 0.437500 0.750000
vt 0.437500 0.687500
vt 0.437500 0.562500
vt 0.500000 0.625000
vt 0.437500 0.625000
vt 0.562500 0.562500
vt 0.625000 0.625000
vt 0.562500 0.625000
vt 0.437500 0.437500
vt 0.500000 0.500000
vt 0.437500 0.500000
vt 0.437500 0.312500
vt 0.500000 0.375000
vt 0.437500 0.375000
vt 0.625000 0.312500
vt 0.562500 0.375000
vt 0.562500 0.312500
vt 0.437500 0.187500
vt 0.500000 0.250000
vt 0.437500 0.250000
vt 0.500000 0.062500
vt 0.437500 0.125000
vt 0.437500 0.062500
vt 0.562500 0.062500
vt 0.625000 0.125000
vt 0.562500 0.125000
vt 0.500000 0.125000
vt 0.562500 0.000000
vt 0.500000 0.000000
vt 0.625000 0.062500
vt 0.375000 0.125000
vt 0.375000 0.062500
vt 0.437500 0.000000
vt 0.375000 0.000000
vt 0.375000 0.250000
vt 0.375000 0.187500
vt 0.500000 0.312500
vt 0.375000 0.375000
vt 0.375000 0.312500
vt 0.375000 0.437500
vt 0.375000 0.500000
vt 0.500000 0.437500
vt 0.500000 0.562500
vt 0.625000 0.562500
vt 0.375000 0.562500
vt 0.375000 0.687500
vt 0.500000 0.812500
vt 0.500000 0.750000
vt 0.625000 0.812500
vt 0.375000 0.812500
vt 0.375000 0.875000
vt 0.375000 0.937500
vt 0.375000 1.000000
vt 0.500000 0.937500
vt 0.250000 0.625000
vt 0.312500 0.500000
vt 0.250000 0.500000
vt 0.125000 0.625000
vt 0.125000 0.562500
vt 0.125000 0.500000
vt 0.187500 0.500000
vt 0.125000 0.687500
vt 0.125000 0.750000
vt 0.250000 0.687500
vt 0.750000 0.562500
vt 0.812500 0.500000
vt 0.750000 0.500000
vt 0.687500 0.500000
vt 0.625000 0.500000
vt 0.625000 0.750000
vt 0.750000 0.750000
vt 0.875000 0.625000
vt 0.500000 0.187500
vt 0.625000 0.187500
vt 0.625000 1.000000
vt 0.875000 0.750000
vt 0.625000 0.375000
vt 0.625000 0.000000
vt 0.875000 0.500000
s 0
f 98/1/1 4/2/1 42/3/1
f 32/4/2 45/5/2 97/6/2
f 35/7/3 48/8/3 96/9/3
f 38/10/4 28/11/4 95/12/4
f 94/13/5 5/14/5 37/15/5
f 41/16/6 38/17/6 93/18/6
f 51/19/6 50/20/6 92/21/6
f 91/22/6 21/23/6 53/24/6
f 29/25/7 54/26/7 90/27/7
f 89/28/8 19/29/8 49/30/8
f 56/31/9 57/32/9 88/33/9
f 87/34/10 16/35/10 58/36/10
f 86/37/11 10/38/11 40/39/11
f 85/40/12 23/41/12 61/42/12
f 84/43/13 20/44/13 62/45/13
f 63/46/3 36/47/3 83/48/3
f 82/49/14 24/50/14 65/51/14
f 81/52/15 17/53/15 66/54/15
f 80/55/16 15/56/16 33/57/16
f 79/58/17 25/59/17 69/60/17
f 44/61/18 70/62/18 78/63/18
f 77/64/19 12/65/19 30/66/19
f 72/67/20 73/68/20 76/69/20
f 75/70/21 11/71/21 74/72/21
f 75/70/22 26/73/22 72/67/22
f 28/74/23 72/67/23 10/75/23
f 28/74/21 41/76/21 75/70/21
f 76/69/20 9/77/20 27/78/20
f 40/79/24 27/78/24 1/80/24
f 40/79/25 72/67/25 76/69/25
f 77/64/22 3/81/22 39/82/22
f 9/77/19 77/64/19 39/82/19
f 26/73/1 77/64/1 73/68/1
f 68/83/26 70/62/26 25/59/26
f 42/3/27 68/83/27 12/65/27
f 4/2/17 78/63/17 42/3/17
f 79/58/28 13/84/28 31/85/28
f 3/81/29 79/58/29 31/85/29
f 30/66/26 68/83/26 79/58/26
f 43/86/30 33/57/30 7/87/30
f 13/84/16 80/55/16 43/86/16
f 69/60/31 67/88/31 80/55/31
f 81/52/32 24/50/32 64/89/32
f 45/5/33 64/89/33 15/56/33
f 45/5/34 47/90/34 81/52/34
f 82/49/35 16/35/35 34/91/35
f 33/57/36 34/91/36 7/87/36
f 33/57/37 64/89/37 82/49/37
f 46/92/38 36/47/38 5/14/38
f 65/51/39 46/92/39 16/35/39
f 65/51/40 63/46/40 83/48/40
f 60/93/41 62/45/41 23/41/41
f 18/94/13 84/43/13 60/93/13
f 48/8/42 50/95/42 84/43/42
f 37/96/43 61/42/43 19/97/43
f 36/47/44 37/96/44 5/14/44
f 18/94/45 85/40/45 36/47/45
f 49/98/46 40/39/46 1/99/46
f 61/42/47 49/98/47 19/97/47
f 61/42/48 59/100/48 86/37/48
f 56/31/49 58/36/49 22/101/49
f 43/102/50 56/31/50 13/103/50
f 43/102/51 34/91/51 87/34/51
f 88/33/10 9/104/10 39/105/10
f 3/106/51 88/33/51 39/105/51
f 13/103/5 88/33/5 31/107/5
f 27/108/52 49/30/52 1/109/52
f 9/104/53 89/28/53 27/108/53
f 57/32/9 55/110/9 89/28/9
f 90/27/54 21/23/54 52/111/54
f 44/112/55 52/111/55 14/113/55
f 44/112/6 29/25/6 90/27/6
f 91/22/56 17/53/56 47/90/56
f 32/114/6 47/90/6 8/115/6
f 14/113/56 91/22/56 32/114/56
f 35/7/57 50/20/57 6/116/57
f 17/53/58 92/21/58 35/7/58
f 21/23/6 92/21/6 53/24/6
f 93/18/59 20/117/59 51/19/59
f 54/26/59 51/19/59 21/23/59
f 11/118/6 93/18/6 54/26/6
f 94/13/60 19/29/60 55/110/60
f 58/36/61 55/110/61 22/101/61
f 58/36/49 46/92/49 94/13/49
f 59/100/62 28/11/62 10/38/62
f 23/41/45 95/12/45 59/100/45
f 62/45/41 38/10/41 95/12/41
f 96/9/63 18/94/63 63/46/63
f 66/54/63 63/46/63 24/50/63
f 66/54/3 35/7/3 96/9/3
f 67/88/31 45/5/31 15/56/31
f 25/59/17 97/6/17 67/88/17
f 70/62/26 32/4/26 97/6/26
f 98/1/64 12/65/64 71/119/64
f 74/72/65 71/119/65 26/73/65
f 74/72/66 29/120/66 98/1/66
f 98/1/66 29/120/66 4/2/66
f 32/4/2 8/115/2 45/5/2
f 35/7/3 6/116/3 48/8/3
f 38/10/4 2/121/4 28/11/4
f 94/13/49 46/92/49 5/14/49
f 41/16/6 2/122/6 38/17/6
f 51/19/6 20/117/6 50/20/6
f 91/22/67 52/111/67 21/23/67
f 29/25/7 11/118/7 54/26/7
f 89/28/9 55/110/9 19/29/9
f 56/31/68 22/101/68 57/32/68
f 87/34/10 34/91/10 16/35/10
f 86/37/62 59/100/62 10/38/62
f 85/40/41 60/93/41 23/41/41
f 84/43/45 50/95/45 20/44/45
f 63/46/3 18/94/3 36/47/3
f 82/49/69 64/89/69 24/50/69
f 81/52/70 47/90/70 17/53/70
f 80/55/31 67/88/31 15/56/31
f 79/58/26 68/83/26 25/59/26
f 44/61/18 14/123/18 70/62/18
f 77/64/71 71/119/71 12/65/71
f 72/67/20 26/73/20 73/68/20
f 75/70/21 41/76/21 11/71/21
f 75/70/1 74/72/1 26/73/1
f 28/74/23 75/70/23 72/67/23
f 28/74/21 2/124/21 41/76/21
f 76/69/20 73/68/20 9/77/20
f 40/79/25 76/69/25 27/78/25
f 40/79/72 10/75/72 72/67/72
f 77/64/73 30/66/73 3/81/73
f 9/77/1 73/68/1 77/64/1
f 26/73/73 71/119/73 77/64/73
f 68/83/17 78/63/17 70/62/17
f 42/3/17 78/63/17 68/83/17
f 4/2/74 44/61/74 78/63/74
f 79/58/28 69/60/28 13/84/28
f 3/81/26 30/66/26 79/58/26
f 30/66/75 12/65/75 68/83/75
f 43/86/16 80/55/16 33/57/16
f 13/84/31 69/60/31 80/55/31
f 69/60/17 25/59/17 67/88/17
f 81/52/76 66/54/76 24/50/76
f 45/5/33 81/52/33 64/89/33
f 45/5/34 8/115/34 47/90/34
f 82/49/77 65/51/77 16/35/77
f 33/57/36 82/49/36 34/91/36
f 33/57/37 15/56/37 64/89/37
f 46/92/3 83/48/3 36/47/3
f 65/51/40 83/48/40 46/92/40
f 65/51/78 24/50/78 63/46/78
f 60/93/13 84/43/13 62/45/13
f 18/94/79 48/8/79 84/43/79
f 48/8/42 6/116/42 50/95/42
f 37/96/12 85/40/12 61/42/12
f 36/47/44 85/40/44 37/96/44
f 18/94/80 60/93/80 85/40/80
f 49/98/11 86/37/11 40/39/11
f 61/42/47 86/37/47 49/98/47
f 61/42/48 23/41/48 59/100/48
f 56/31/81 87/34/81 58/36/81
f 43/102/82 87/34/82 56/31/82
f 43/102/83 7/87/83 34/91/83
f 88/33/84 57/32/84 9/104/84
f 3/106/84 31/107/84 88/33/84
f 13/103/50 56/31/50 88/33/50
f 27/108/8 89/28/8 49/30/8
f 9/104/84 57/32/84 89/28/84
f 57/32/85 22/101/85 55/110/85
f 90/27/86 54/26/86 21/23/86
f 44/112/87 90/27/87 52/111/87
f 44/112/88 4/125/88 29/25/88
f 91/22/6 53/24/6 17/53/6
f 32/114/56 91/22/56 47/90/56
f 14/113/89 52/111/89 91/22/89
f 35/7/57 92/21/57 50/20/57
f 17/53/6 53/24/6 92/21/6
f 21/23/6 51/19/6 92/21/6
f 93/18/59 38/17/59 20/117/59
f 54/26/59 93/18/59 51/19/59
f 11/118/6 41/16/6 93/18/6
f 94/13/60 37/15/60 19/29/60
f 58/36/90 94/13/90 55/110/90
f 58/36/5 16/35/5 46/92/5
f 59/100/45 95/12/45 28/11/45
f 23/41/41 62/45/41 95/12/41
f 62/45/13 20/44/13 38/10/13
f 96/9/63 48/8/63 18/94/63
f 66/54/63 96/9/63 63/46/63
f 66/54/15 17/53/15 35/7/15
f 67/88/17 97/6/17 45/5/17
f 25/59/26 70/62/26 97/6/26
f 70/62/75 14/123/75 32/4/75
f 98/1/91 42/3/91 12/65/91
f 74/72/65 98/1/65 71/119/65
f 74/72/92 11/71/92 29/120/92
